<svg xmlns="http://www.w3.org/2000/svg" width="50" height="56" viewBox="0 0 50 56">
  <g fill="none" fill-rule="evenodd" transform="translate(.733)">
    <path fill="#4106F9" d="M4.55,1.40862447e-15 C2.1,1.40862447e-15 0.0875,1.925 0.0875,4.375 L0.0875,51.5375 C0.0875,53.9875 2.0125,56 4.55,56 L44.5375,56 C46.9875,56 49,53.9875 49,51.5375 L49,17.7625 L32.4625,-1.7e-15 L4.55,-1.7e-15 L4.55,1.40862447e-15 Z"/>
    <g fill-rule="nonzero" transform="translate(32.375)">
      <path fill="#1B0F9F" d="M16.625,17.7625 L16.625,18.6375 L5.425,18.6375 C5.425,18.6375 -0.0875,17.5875 0.0875,12.775 C0.0875,12.775 0.2625,17.7625 5.3375,17.7625 L16.625,17.7625 Z"/>
      <path fill="#FFF" d="M0.0875,0 L0.0875,12.6875 C0.0875,14.175 1.05,17.7625 5.425,17.7625 L16.625,17.7625 L0.0875,0 Z" opacity=".5"/>
    </g>
    <path fill="#FFF" fill-rule="nonzero" d="M19.5125,36.4875 C22.575,36.4875 24.675,38.7625 24.675,41.9125 C24.675,44.975 22.575,47.3375 19.5125,47.3375 C16.3625,47.3375 14.2625,44.975 14.2625,41.9125 C14.2625,38.85 16.3625,36.4875 19.5125,36.4875 Z M32.1125,36.4875 C33.6875,36.4875 34.825,37.1 35.6125,37.975 C35.7,38.0625 35.7875,38.2375 35.7875,38.4125 C35.7875,38.7625 35.525,39.025 35.175,39.025 C35,39.025 34.825,38.9375 34.7375,38.85 C34.125,38.0625 33.075,37.625 32.1125,37.625 C29.8375,37.625 28.0875,39.375 28.0875,41.9125 C28.0875,44.3625 29.8375,46.1125 32.1125,46.1125 C33.075,46.1125 34.0375,45.7625 34.7375,44.975 C34.825,44.8 35,44.7125 35.175,44.7125 C35.525,44.7125 35.7875,45.0625 35.7875,45.4125 C35.7875,45.5875 35.7,45.675 35.6125,45.85 C34.825,46.725 33.6875,47.3375 32.1125,47.3375 C29.05,47.3375 26.6875,45.15 26.6875,41.9125 C26.6875,38.675 29.05,36.4875 32.1125,36.4875 Z M6.825,36.6625 C10.15,36.6625 12.25,38.9375 12.25,41.9125 C12.25,44.8875 10.15,47.1625 6.825,47.1625 L4.2,47.1625 C3.675,47.1625 3.2375,46.725 3.2375,46.2 L3.2375,37.5375 C3.2375,37.0125 3.675,36.6625 4.2,36.6625 L6.825,36.6625 Z M45.0916667,36.4 C45.4416667,36.4 45.7041667,36.6625 45.7041667,37.0125 C45.7041667,37.1875 45.7041667,37.275 45.6166667,37.3625 L42.4666667,41.5625 L45.8791667,46.1125 C45.8791667,46.2 45.9666667,46.375 45.9666667,46.4625 C45.9666667,46.8125 45.7041667,47.075 45.3541667,47.075 C45.0916667,47.075 44.9166667,47.075 44.8291667,46.9 L41.5916667,42.525 L38.2666667,46.9 C38.1791667,47.075 38.0041667,47.075 37.8291667,47.075 C37.4791667,47.075 37.2166667,46.8125 37.2166667,46.4625 C37.2166667,46.375 37.2166667,46.2 37.3041667,46.1125 L40.7166667,41.65 L37.5666667,37.3625 C37.4791667,37.275 37.4791667,37.1875 37.4791667,37.0125 C37.4791667,36.75 37.6541667,36.4 38.0916667,36.4 C38.2666667,36.4 38.4416667,36.4875 38.6166667,36.6625 L41.5916667,40.6875 L44.5666667,36.6625 C44.7416667,36.4875 44.9166667,36.4 45.0916667,36.4 Z M19.5125,37.625 C17.15,37.625 15.6625,39.4625 15.6625,41.9125 C15.6625,44.3625 17.15,46.1125 19.5125,46.1125 C21.7875,46.1125 23.3625,44.3625 23.3625,41.9125 C23.3625,39.4625 21.7875,37.625 19.5125,37.625 Z M6.825,37.8 L4.55,37.8 L4.55,45.9375 L6.825,45.9375 C9.45,45.9375 10.9375,44.1 10.9375,41.9125 C10.9375,39.6375 9.45,37.8 6.825,37.8 Z"/>
  </g>
</svg>
