<svg xmlns="http://www.w3.org/2000/svg" xmlns:xlink="http://www.w3.org/1999/xlink" width="40" height="40" viewBox="0 0 40 40">
  <defs>
    <path id="import-a" d="M9.9645,2.1 C10.29525,2.1 10.5525,2.375625 10.5525,2.73 L10.5525,2.73 L10.5525,7.14 C10.5525,8.16375 11.1405,8.79375 12.096,8.79375 L12.096,8.79375 L16.212,8.79375 C16.54275,8.79375 16.8,9.069375 16.8,9.42375 L16.8,9.42375 L16.8,13.415 L11.8954401,18.2348966 C11.1462859,18.9710301 10.854976,20.0207596 11.0638115,21.000834 L3.864,21 C2.9085,21 2.1,20.13375 2.1,19.11 L2.1,19.11 L2.1,3.99 C2.1,2.96625 2.9085,2.1 3.864,2.1 L3.864,2.1 Z M17.5189922,14.843131 C17.7251938,14.6522897 18.0860465,14.6522897 18.3437984,14.843131 L18.3437984,14.843131 L19.1686047,15.6542066 C19.3748062,15.8450479 19.3748062,16.1790202 19.1686047,16.4175719 L19.1686047,16.4175719 L16.9003876,18.5168264 C16.7972868,18.6599574 16.8488372,18.9462194 17.0034884,19.04164 C17.0550388,19.0893504 17.1065891,19.1370607 17.2096899,19.1370607 L17.2096899,19.1370607 L24.5813953,19.1370607 C24.8906977,19.2324814 25.1484496,19.471033 25.2,19.757295 L25.2,19.757295 L25.2,20.9023429 C25.1484496,21.1886049 24.8906977,21.4271565 24.5813953,21.4271565 L24.5813953,21.4271565 L17.2096899,21.4271565 C16.951938,21.4271565 16.7972868,21.5702875 16.7972868,21.8088392 C16.7972868,21.9519702 16.7972868,21.9996805 16.9003876,22.0951012 L16.9003876,22.0951012 L19.1686047,24.1943557 C19.3748062,24.385197 19.3748062,24.7191693 19.1686047,24.957721 L19.1686047,24.957721 L18.2922481,25.7210863 C18.0860465,25.9596379 17.7251938,25.9596379 17.4158915,25.7210863 L17.4158915,25.7210863 L12.0546512,20.6637913 C11.8484496,20.4729499 11.8484496,20.1389776 12.0546512,19.900426 L12.0546512,19.900426 Z M12.9876923,2.1 C13.0846154,2.1 13.2138462,2.13769231 13.2784615,2.21307692 L13.2784615,2.21307692 L16.7030769,6.20846154 C16.7676923,6.28384615 16.8,6.43461538 16.8,6.54769231 C16.8,6.77384615 16.6384615,7 16.4446154,7 L16.4446154,7 L13.6984615,7 C13.1169231,7 12.6,6.39692308 12.6,5.71846154 L12.6,5.71846154 L12.6,2.51461538 C12.6,2.28846154 12.7938462,2.1 12.9876923,2.1 Z"/>
  </defs>
  <g fill="none" fill-rule="evenodd">
    <circle cx="20" cy="20" r="20" fill="#54698D"/>
    <g transform="translate(6.154 6.154)">
      <mask id="import-b" fill="#fff">
        <use xlink:href="#import-a"/>
      </mask>
      <use fill="#FFF" xlink:href="#import-a"/>
      <g fill="#FFF" mask="url(#import-b)">
        <rect width="28" height="28"/>
      </g>
    </g>
  </g>
</svg>
