<svg xmlns="http://www.w3.org/2000/svg" width="56" height="56" viewBox="0 0 56 56">
  <g fill="none" fill-rule="evenodd">
    <g fill-rule="nonzero" transform="translate(3.733)">
      <path fill="#8C181A" d="M4.4625,1.40862447e-15 C2.0125,1.40862447e-15 0,2.0125 0,4.4625 L0,51.5375 C0,53.9875 2.0125,56 4.4625,56 L44.5375,56 C46.9875,56 49,53.9875 49,51.5375 L49,17.7625 L32.4625,-1.7e-15 L4.4625,-1.7e-15 L4.4625,1.40862447e-15 Z"/>
      <path fill="#6B0D12" d="M49,17.85 L49,18.725 L37.8,18.725 C37.8,18.725 32.2875,17.5875 32.4625,12.8625 C32.4625,12.8625 32.6375,17.85 37.7125,17.85 L49,17.85 Z"/>
      <path fill="#FFF" d="M32.4625,0 L32.4625,12.775 C32.4625,14.2625 33.425,17.85 37.8,17.85 L49,17.85 L32.4625,0 Z" opacity=".5"/>
      <path fill="#FFF" d="M7.93333333,42.875 L5.04583333,42.875 L5.04583333,46.4625 C5.04583333,46.8125 4.78333333,47.075 4.34583333,47.075 C3.99583333,47.075 3.73333333,46.8125 3.73333333,46.4625 L3.73333333,37.5375 C3.73333333,37.0125 4.17083333,36.575 4.69583333,36.575 L7.93333333,36.575 C10.0333333,36.575 11.2583333,38.0625 11.2583333,39.725 C11.2583333,41.475 10.0333333,42.875 7.93333333,42.875 L7.93333333,42.875 Z M7.84583333,37.7125 L5.04583333,37.7125 L5.04583333,41.7375 L7.84583333,41.7375 C9.07083333,41.7375 9.94583333,40.95 9.94583333,39.725 C9.94583333,38.5 9.07083333,37.7125 7.84583333,37.7125 L7.84583333,37.7125 Z M16.9458333,47.075 L14.3208333,47.075 C13.7958333,47.075 13.3583333,46.6375 13.3583333,46.1125 L13.3583333,37.5375 C13.3583333,37.0125 13.7958333,36.575 14.3208333,36.575 L16.9458333,36.575 C20.1833333,36.575 22.3708333,38.85 22.3708333,41.825 C22.3708333,44.8 20.2708333,47.075 16.9458333,47.075 L16.9458333,47.075 Z M16.9458333,37.7125 L14.6708333,37.7125 L14.6708333,45.85 L16.9458333,45.85 C19.4833333,45.85 20.9708333,44.0125 20.9708333,41.7375 C21.0583333,39.55 19.5708333,37.7125 16.9458333,37.7125 L16.9458333,37.7125 Z M31.2083333,37.7125 L26.1333333,37.7125 L26.1333333,41.125 L31.1208333,41.125 C31.4708333,41.125 31.6458333,41.3875 31.6458333,41.7375 C31.6458333,42.0875 31.3833333,42.2625 31.1208333,42.2625 L26.1333333,42.2625 L26.1333333,46.4625 C26.1333333,46.8125 25.8708333,47.075 25.4333333,47.075 C25.0833333,47.075 24.8208333,46.8125 24.8208333,46.4625 L24.8208333,37.5375 C24.8208333,37.0125 25.2583333,36.575 25.7833333,36.575 L31.2083333,36.575 C31.5583333,36.575 31.7333333,36.8375 31.7333333,37.1875 C31.8208333,37.45 31.5583333,37.7125 31.2083333,37.7125 L31.2083333,37.7125 Z"/>
    </g>
    <polygon fill="#FFF" fill-rule="nonzero" points="36.59 48.87 35.467 48.87 39.322 36.696 40.389 36.696"/>
    <path fill="#FFF" fill-rule="nonzero" d="M49.2333333,47.1625 C48.9708333,47.1625 48.7958333,46.9875 48.6208333,46.725 L47.8333333,44.7125 L42.5833333,44.7125 L41.7958333,46.725 C41.7083333,46.9875 41.4458333,47.1625 41.1833333,47.1625 C40.8333333,47.1625 40.4833333,46.8125 40.4833333,46.4625 C40.4833333,46.375 40.4833333,46.2875 40.5708333,46.2 L44.1583333,37.1875 C44.3333333,36.75 44.7708333,36.4875 45.2083333,36.4875 C45.7333333,36.4875 46.0833333,36.75 46.2583333,37.1875 L49.9333333,46.2 C49.9333333,46.2875 50.0208333,46.375 50.0208333,46.4625 C50.0208333,46.8125 49.6708333,47.1625 49.2333333,47.1625 L49.2333333,47.1625 Z M45.2083333,37.8875 L43.0208333,43.575 L47.4833333,43.575 L45.2083333,37.8875 Z"/>
  </g>
</svg>
