<svg xmlns="http://www.w3.org/2000/svg" width="84" height="60" viewBox="0 0 84 60">
  <g fill="none" fill-rule="evenodd">
    <path fill="#FFF" stroke="#55BBEA" d="M42.2801,14.3584 L32.2741,6.0424 C31.9481,5.7714 31.6401,5.6994 31.2411,5.7354 C30.4451,5.8094 29.9031,6.4624 29.9761,7.2584 L30.5821,13.8304 C30.7841,16.0214 32.7421,17.6484 34.9331,17.4464 L41.5051,16.8404 C42.3011,16.7664 42.8431,16.1144 42.7701,15.3174 C42.7331,14.9194 42.6061,14.6294 42.2801,14.3584 Z M41.4591,22.8704 L31.5011,23.7884 C28.2151,24.0914 25.2781,21.6504 24.9751,18.3644 L24.0561,8.4074 C23.9551,7.3124 22.9771,6.4984 21.8811,6.5994 L5.9491,8.0684 C2.6631,8.3724 0.2221,11.3084 0.5251,14.5944 L4.0161,52.4344 C4.3191,55.7204 7.2561,58.1604 10.5411,57.8584 L40.4151,55.1024 C43.7011,54.7994 46.1411,51.8624 45.8391,48.5764 L43.6341,24.6774 C43.5331,23.5824 42.5531,22.7694 41.4591,22.8704 Z"/>
    <path fill="#FFF" d="M63.3856,17.2359 L55.8756,6.6109 C55.6306,6.2639 55.3526,6.1149 54.9576,6.0479 C54.1696,5.9119 53.4766,6.4019 53.3416,7.1899 L52.2236,13.6949 C51.8516,15.8629 53.3206,17.9419 55.4886,18.3139 L61.9926,19.4319 C62.7816,19.5679 63.4746,19.0779 63.6106,18.2889 C63.6776,17.8949 63.6296,17.5829 63.3856,17.2359 M60.3856,25.2439 L50.5306,23.5499 C47.2786,22.9909 45.0736,19.8729 45.6326,16.6209 L47.3256,6.7649 C47.5126,5.6809 46.7786,4.6419 45.6946,4.4559 L29.9256,1.7459 C26.6726,1.1869 23.5546,3.3909 22.9956,6.6429 L16.5606,44.0939 C16.0016,47.3469 18.2056,50.4649 21.4576,51.0239 L51.0246,56.1039 C54.2776,56.6629 57.3956,54.4599 57.9536,51.2069 L62.0186,27.5529 C62.2046,26.4689 61.4696,25.4299 60.3856,25.2439"/>
    <path stroke="#55BBEA" d="M63.3856,17.2359 L55.8756,6.6109 C55.6306,6.2639 55.3526,6.1149 54.9576,6.0479 C54.1696,5.9119 53.4766,6.4019 53.3416,7.1899 L52.2236,13.6949 C51.8516,15.8629 53.3206,17.9419 55.4886,18.3139 L61.9926,19.4319 C62.7816,19.5679 63.4746,19.0779 63.6106,18.2889 C63.6776,17.8949 63.6296,17.5829 63.3856,17.2359 Z M60.3856,25.2439 L50.5306,23.5499 C47.2786,22.9909 45.0736,19.8729 45.6326,16.6209 L47.3256,6.7649 C47.5126,5.6809 46.7786,4.6419 45.6946,4.4559 L29.9256,1.7459 C26.6726,1.1869 23.5546,3.3909 22.9956,6.6429 L16.5606,44.0939 C16.0016,47.3469 18.2056,50.4649 21.4576,51.0239 L51.0246,56.1039 C54.2776,56.6629 57.3956,54.4599 57.9536,51.2069 L62.0186,27.5529 C62.2046,26.4689 61.4696,25.4299 60.3856,25.2439 Z"/>
    <path fill="#B4E3FA" d="M82.4754,22.8824 L77.2824,10.9524 C77.1134,10.5634 76.8714,10.3614 76.4974,10.2144 C75.7534,9.9214 74.9754,10.2594 74.6824,11.0044 L72.2664,17.1464 C71.4604,19.1934 72.4774,21.5274 74.5244,22.3334 L80.6654,24.7494 C81.4104,25.0424 82.1884,24.7034 82.4814,23.9594 C82.6274,23.5874 82.6444,23.2714 82.4754,22.8824 M77.9114,30.1134 L68.6054,26.4514 C65.5344,25.2434 64.0104,21.7424 65.2184,18.6714 L68.8794,9.3664 C69.2824,8.3424 68.7744,7.1754 67.7504,6.7724 L52.8624,0.9144 C49.7904,-0.2936 46.2894,1.2304 45.0814,4.3014 L31.1684,39.6624 C29.9604,42.7344 31.4844,46.2354 34.5554,47.4434 L62.4724,58.4264 C65.5424,59.6354 69.0444,58.1114 70.2524,55.0394 L79.0394,32.7064 C79.4424,31.6834 78.9344,30.5154 77.9114,30.1134"/>
    <path stroke="#55BBEA" d="M82.4754,22.8824 L77.2824,10.9524 C77.1134,10.5634 76.8714,10.3614 76.4974,10.2144 C75.7534,9.9214 74.9754,10.2594 74.6824,11.0044 L72.2664,17.1464 C71.4604,19.1934 72.4774,21.5274 74.5244,22.3334 L80.6654,24.7494 C81.4104,25.0424 82.1884,24.7034 82.4814,23.9594 C82.6274,23.5874 82.6444,23.2714 82.4754,22.8824 Z M77.9114,30.1134 L68.6054,26.4514 C65.5344,25.2434 64.0104,21.7424 65.2184,18.6714 L68.8794,9.3664 C69.2824,8.3424 68.7744,7.1754 67.7504,6.7724 L52.8624,0.9144 C49.7904,-0.2936 46.2894,1.2304 45.0814,4.3014 L31.1684,39.6624 C29.9604,42.7344 31.4844,46.2354 34.5554,47.4434 L62.4724,58.4264 C65.5424,59.6354 69.0444,58.1114 70.2524,55.0394 L79.0394,32.7064 C79.4424,31.6834 78.9344,30.5154 77.9114,30.1134 Z"/>
  </g>
</svg>
