<svg xmlns="http://www.w3.org/2000/svg" width="43" height="51" viewBox="0 0 43 51">
  <path fill="#B4E3FA" fill-rule="evenodd" d="M42.2196,10.2236 L33.0516,0.9916 C32.7516,0.6906 32.4526,0.5896 32.0526,0.588588763 C31.2526,0.5856 30.6506,1.1836 30.6476,1.9836 L30.6245733,8.5836 C30.6166,10.7836 32.4106,12.5896 34.6116,12.5976 L41.2106,12.6196112 C42.0106,12.6226 42.6136,12.0246 42.6156076,11.2246 C42.6166,10.8256 42.5186,10.5246 42.2196,10.2236 M40.5896,18.6186 L30.5896,18.5836 C27.2896,18.5716 24.5996,15.8626 24.6116,12.5626 L24.6456,2.5626 C24.6496,1.4626 23.7526,0.5596 22.6536,0.5556 L6.6536,0.499566396 C3.3526,0.4886 0.6436,3.1796 0.6316,6.4786 L0.499566396,44.4786 C0.4886,47.7786 3.1796,50.4886 6.4796,50.4996 L36.4796,50.60364 C39.7796,50.6156 42.4886,47.9256 42.4996,44.6246 L42.5826133,20.6246 C42.5866,19.5246 41.6906,18.6216 40.5896,18.6186"/>
</svg>
